<?xml version="1.0" standalone="no"?>
<!DOCTYPE svg PUBLIC "-//W3C//DTD SVG 20010904//EN"
 "http://www.w3.org/TR/2001/REC-SVG-20010904/DTD/svg10.dtd">
<svg version="1.0" xmlns="http://www.w3.org/2000/svg"
 width="512.000000pt" height="512.000000pt" viewBox="0 0 512.000000 512.000000"
 preserveAspectRatio="xMidYMid meet">

<g transform="translate(0.000000,512.000000) scale(0.100000,-0.100000)"
fill="#000000" stroke="none">
<path d="M3203 5065 c-193 -36 -233 -51 -264 -101 -26 -43 -24 -89 11 -289 16
-93 30 -177 30 -185 0 -13 -88 -70 -108 -70 -4 0 -77 59 -162 130 -168 141
-201 159 -269 140 -49 -13 -61 -25 -210 -203 -132 -158 -149 -191 -130 -259
12 -45 32 -66 204 -209 74 -62 135 -115 135 -120 0 -4 -10 -32 -21 -63 l-22
-56 -212 0 c-203 0 -213 -1 -245 -22 -18 -13 -43 -36 -54 -51 -20 -27 -21 -41
-21 -260 0 -227 1 -233 23 -265 45 -62 64 -66 301 -72 l213 -5 19 -50 c11 -27
17 -55 15 -61 -3 -7 -71 -68 -153 -136 -81 -69 -153 -131 -160 -139 -21 -27
-33 -93 -23 -130 14 -50 272 -357 316 -375 39 -16 82 -18 117 -5 14 6 96 69
182 141 l156 131 54 -31 c33 -19 55 -38 55 -48 0 -9 -14 -91 -30 -182 -35
-194 -37 -243 -10 -287 32 -53 63 -65 254 -100 207 -37 254 -39 302 -17 56 27
69 62 108 278 20 110 41 203 47 207 16 9 108 21 118 15 4 -3 52 -82 106 -176
54 -94 109 -180 123 -190 36 -29 92 -42 131 -30 18 5 109 53 203 107 197 113
222 137 222 217 1 47 -7 65 -101 228 -57 98 -103 180 -103 183 0 13 75 95 86
95 7 0 92 -29 190 -65 106 -39 194 -65 217 -65 52 0 103 25 126 64 26 43 151
391 151 422 0 35 -23 85 -52 112 -25 22 -68 41 -290 121 l-118 43 0 67 0 66
123 44 c246 87 276 101 303 136 48 63 44 92 -36 312 -39 109 -81 209 -93 222
-26 28 -76 51 -112 51 -14 0 -113 -32 -220 -70 l-196 -71 -27 32 c-60 72 -63
54 36 227 139 243 139 244 102 316 -24 47 -25 48 -234 169 -132 75 -178 97
-207 97 -87 0 -108 -22 -233 -240 -67 -117 -103 -170 -112 -166 -8 3 -36 8
-64 12 -27 4 -50 8 -50 10 0 2 -16 92 -35 200 -36 202 -50 242 -97 277 -41 31
-107 29 -305 -8z m262 -342 c45 -262 47 -266 135 -277 30 -4 92 -14 136 -23
75 -15 84 -15 106 -1 13 9 74 104 137 212 62 108 114 196 115 196 12 0 311
-181 309 -187 -1 -4 -51 -94 -112 -199 -67 -115 -111 -202 -111 -219 0 -18 19
-49 63 -99 34 -41 74 -89 89 -108 15 -20 38 -38 51 -42 17 -4 92 19 243 74
120 44 219 78 220 77 11 -13 120 -334 115 -339 -3 -4 -101 -41 -216 -83 -116
-42 -216 -82 -224 -90 -11 -10 -14 -50 -16 -161 -1 -136 0 -149 19 -170 13
-14 95 -49 222 -94 111 -40 206 -75 212 -79 7 -4 -10 -63 -49 -171 -33 -90
-62 -166 -64 -169 -3 -2 -99 31 -214 73 -116 42 -221 76 -234 76 -29 0 -42
-11 -92 -75 -21 -27 -58 -71 -82 -97 -29 -32 -43 -56 -43 -75 0 -18 43 -103
114 -228 l115 -199 -27 -16 c-211 -126 -284 -162 -296 -149 -7 8 -61 98 -120
200 -122 213 -126 217 -214 194 -31 -8 -84 -17 -117 -20 -77 -8 -110 -21 -122
-48 -6 -12 -27 -120 -48 -240 -31 -176 -42 -217 -55 -217 -27 0 -330 57 -337
63 -3 4 11 100 31 214 20 114 36 222 36 239 0 37 -15 52 -95 92 -33 17 -80 45
-105 61 -79 54 -71 58 -309 -143 -84 -70 -156 -124 -160 -120 -117 136 -222
266 -219 273 2 5 66 61 143 126 192 161 215 183 215 209 0 13 -13 55 -29 93
-16 39 -36 96 -45 126 -9 31 -22 60 -29 64 -6 4 -120 10 -252 13 l-240 5 -3
183 -2 182 234 0 c208 0 236 2 255 18 13 10 36 58 55 112 18 52 39 109 46 126
24 56 10 74 -175 229 -96 81 -175 150 -175 154 0 11 221 271 230 271 4 0 82
-63 173 -139 91 -77 175 -144 186 -151 26 -14 53 -6 106 30 22 15 65 40 95 55
75 37 100 62 100 99 0 17 -16 119 -35 226 -19 107 -35 202 -35 211 0 13 33 22
168 46 92 17 172 31 177 32 6 1 28 -98 50 -226z"/>
<path d="M3680 3525 l-435 -435 -191 190 c-207 207 -220 215 -269 165 -50 -49
-42 -62 173 -278 108 -109 209 -205 224 -213 35 -18 91 -18 126 0 15 8 226
214 470 458 479 481 471 470 417 523 -53 54 -43 61 -515 -410z"/>
<path d="M295 2236 c-102 -26 -181 -81 -233 -164 -60 -94 -62 -114 -62 -572 0
-407 1 -418 21 -444 26 -33 77 -36 105 -5 18 20 19 46 24 453 l5 431 27 46
c15 25 44 57 65 72 61 41 114 49 305 45 194 -4 225 -13 285 -82 59 -67 58 -48
58 -816 0 -768 1 -749 -58 -816 -60 -69 -91 -78 -285 -82 -191 -4 -244 4 -305
45 -21 15 -50 47 -65 72 -26 44 -27 52 -32 233 -6 211 -9 222 -76 222 -26 0
-42 -7 -55 -23 -17 -21 -19 -42 -19 -195 0 -192 10 -247 62 -328 36 -58 83
-100 146 -132 78 -40 152 -49 354 -44 221 6 265 18 358 105 91 84 130 186 130
346 0 69 -12 66 177 32 182 -34 252 -51 348 -87 94 -36 709 -332 805 -388 204
-119 283 -144 460 -144 178 0 218 13 590 203 173 88 524 265 779 394 255 129
475 243 489 254 36 27 35 78 -2 110 -15 12 -34 23 -43 23 -14 0 -1414 -706
-1518 -765 -61 -35 -171 -66 -260 -72 -111 -7 -209 15 -315 72 -163 86 -825
413 -890 438 -110 43 -238 76 -410 107 -91 16 -175 32 -187 35 l-23 5 0 471 0
470 578 -3 577 -3 45 -27 c64 -38 615 -594 635 -641 55 -131 -69 -269 -202
-227 -29 10 -104 78 -314 286 -238 237 -279 274 -305 274 -39 0 -74 -36 -74
-76 0 -25 40 -69 283 -311 320 -320 330 -327 458 -327 68 -1 84 3 145 34 78
40 134 104 154 177 7 23 15 43 18 43 3 0 399 99 881 221 663 167 885 219 915
216 61 -8 107 -61 114 -128 6 -63 -12 -103 -64 -138 -42 -29 -57 -61 -44 -95
13 -34 54 -60 84 -52 48 12 110 70 143 135 79 152 16 334 -141 407 -33 16 -69
24 -104 24 -36 0 -330 -70 -922 -219 l-870 -219 -31 58 c-23 44 -101 128 -347
372 -289 288 -322 317 -377 339 l-60 24 -591 3 -591 3 -12 52 c-16 71 -50 125
-116 185 -92 84 -133 95 -370 98 -139 2 -215 -1 -250 -10z"/>
<path d="M545 925 c-41 -40 -34 -76 24 -124 58 -48 69 -82 47 -135 -11 -26
-26 -41 -52 -52 -47 -20 -87 -10 -120 29 -23 28 -26 37 -21 86 5 49 4 56 -23
82 -35 35 -60 37 -96 6 -22 -19 -28 -34 -32 -80 -6 -78 13 -138 61 -193 103
-117 259 -123 367 -14 115 114 98 296 -35 387 -56 39 -87 41 -120 8z"/>
</g>
</svg>
