<?xml version="1.0" encoding="UTF-8" standalone="no"?>
<!-- Created with Inkscape (http://www.inkscape.org/) -->

<svg
   width="101.82773mm"
   height="54.993973mm"
   viewBox="0 0 101.82773 54.993973"
   version="1.1"
   id="svg5"
   sodipodi:docname="icone.svg"
   inkscape:version="1.2 (dc2aedaf03, 2022-05-15)"
   inkscape:export-filename="icone.svg"
   inkscape:export-xdpi="96"
   inkscape:export-ydpi="96"
   xmlns:inkscape="http://www.inkscape.org/namespaces/inkscape"
   xmlns:sodipodi="http://sodipodi.sourceforge.net/DTD/sodipodi-0.dtd"
   xmlns:xlink="http://www.w3.org/1999/xlink"
   xmlns="http://www.w3.org/2000/svg"
   xmlns:svg="http://www.w3.org/2000/svg">
  <sodipodi:namedview
     id="namedview36"
     pagecolor="#787878"
     bordercolor="#000000"
     borderopacity="0.25"
     inkscape:showpageshadow="2"
     inkscape:pageopacity="0"
     inkscape:pagecheckerboard="0"
     inkscape:deskcolor="#d1d1d1"
     inkscape:document-units="mm"
     showgrid="false"
     inkscape:zoom="2.7339109"
     inkscape:cx="175.02399"
     inkscape:cy="104.79493"
     inkscape:window-width="1920"
     inkscape:window-height="991"
     inkscape:window-x="-9"
     inkscape:window-y="-9"
     inkscape:window-maximized="1"
     inkscape:current-layer="svg5" />
  <defs
     id="defs2">
    <linearGradient
       inkscape:collect="always"
       id="linearGradient1176">
      <stop
         style="stop-color:#797bd6;stop-opacity:1;"
         offset="0"
         id="stop1172" />
      <stop
         style="stop-color:#9440e8;stop-opacity:1;"
         offset="1"
         id="stop1174" />
    </linearGradient>
    <linearGradient
       xlink:href="#linearGradient10005"
       id="linearGradient10007"
       x1="52.571915"
       y1="78.015976"
       x2="189.7079"
       y2="77.641792"
       gradientUnits="userSpaceOnUse" />
    <linearGradient
       id="linearGradient10005">
      <stop
         style="stop-color:#54c9bf;stop-opacity:1;"
         offset="0"
         id="stop10001" />
      <stop
         style="stop-color:#973ae9;stop-opacity:1;"
         offset="1"
         id="stop10003" />
    </linearGradient>
    <linearGradient
       xlink:href="#linearGradient10005"
       id="linearGradient3518"
       gradientUnits="userSpaceOnUse"
       x1="52.571915"
       y1="78.015976"
       x2="189.7079"
       y2="77.641792" />
    <linearGradient
       inkscape:collect="always"
       xlink:href="#linearGradient1176"
       id="linearGradient1178"
       x1="57.31469"
       y1="26.429434"
       x2="98.187271"
       y2="26.429434"
       gradientUnits="userSpaceOnUse"
       gradientTransform="matrix(1.0355451,0,0,1.035545,-3.8096614,0.10050346)" />
    <linearGradient
       inkscape:collect="always"
       xlink:href="#linearGradient1176"
       id="linearGradient4118"
       gradientUnits="userSpaceOnUse"
       gradientTransform="matrix(1.0355451,0,0,1.035545,-3.8096614,0.10050346)"
       x1="57.31469"
       y1="26.429434"
       x2="98.187271"
       y2="26.429434" />
    <linearGradient
       inkscape:collect="always"
       xlink:href="#linearGradient1176"
       id="linearGradient4120"
       gradientUnits="userSpaceOnUse"
       gradientTransform="matrix(1.0355451,0,0,1.035545,-3.8096614,0.10050346)"
       x1="57.31469"
       y1="26.429434"
       x2="98.187271"
       y2="26.429434" />
    <linearGradient
       inkscape:collect="always"
       xlink:href="#linearGradient1176"
       id="linearGradient4122"
       gradientUnits="userSpaceOnUse"
       gradientTransform="matrix(1.0355451,0,0,1.035545,-3.8096614,0.10050346)"
       x1="57.31469"
       y1="26.429434"
       x2="98.187271"
       y2="26.429434" />
    <linearGradient
       inkscape:collect="always"
       xlink:href="#linearGradient1176"
       id="linearGradient4124"
       gradientUnits="userSpaceOnUse"
       gradientTransform="matrix(1.0355451,0,0,1.035545,-3.8096614,0.10050346)"
       x1="57.31469"
       y1="26.429434"
       x2="98.187271"
       y2="26.429434" />
    <linearGradient
       inkscape:collect="always"
       xlink:href="#linearGradient1176"
       id="linearGradient4126"
       gradientUnits="userSpaceOnUse"
       gradientTransform="matrix(1.0355451,0,0,1.035545,-3.8096614,0.10050346)"
       x1="57.31469"
       y1="26.429434"
       x2="98.187271"
       y2="26.429434" />
    <linearGradient
       inkscape:collect="always"
       xlink:href="#linearGradient1176"
       id="linearGradient4128"
       gradientUnits="userSpaceOnUse"
       gradientTransform="matrix(1.0355451,0,0,1.035545,-3.8096614,0.10050346)"
       x1="57.31469"
       y1="26.429434"
       x2="98.187271"
       y2="26.429434" />
  </defs>
  <g
     id="layer1"
     transform="matrix(1.0002376,0,0,1,-64.663388,-9.4599673)"
     inkscape:export-filename="icone.svg"
     inkscape:export-xdpi="96"
     inkscape:export-ydpi="96">
    <g
       id="g1226">
      <g
         id="g1232"
         style="fill:#000000;fill-opacity:1">
        <g
           id="g1212"
           style="fill:#000000;fill-opacity:1" />
        <g
           id="g1377"
           style="fill:#c83737">
          <path
             id="path163-8"
             style="fill:#ffffff;fill-opacity:1;stroke-width:0.251164"
             d="M 82.546676,9.4599673 A 17.898714,20.138641 0 0 0 64.648027,29.59879 17.898714,20.138641 0 0 0 71.355111,45.313076 l -0.02325,0.01809 0.441833,0.33383 a 17.898714,20.138641 0 0 0 1.755965,1.326534 l 23.114869,17.4625 23.109182,-17.458883 a 17.898714,20.138641 0 0 0 1.76371,-1.332219 l 0.43977,-0.331762 -0.0232,-0.01809 A 17.898714,20.138641 0 0 0 128.64102,29.59879 17.898714,20.138641 0 0 0 110.74237,9.4599673 17.898714,20.138641 0 0 0 96.647107,17.196446 17.898714,20.138641 0 0 0 82.546676,9.4599673 Z" />
          <g
             id="g11493"
             style="fill:#c83737;fill-opacity:1"
             transform="matrix(0.71594856,0,0,0.80554564,30.444047,-26.789453)">
            <g
               id="g9519"
               style="fill:url(#linearGradient10007);fill-opacity:1">
              <path
                 id="rect376-1-8-38"
                 style="fill:url(#linearGradient3518);fill-opacity:1;stroke-width:0.184769"
                 d="m 110.6177,58.164229 -4.20443,26.581543 H 52.587248 l 0.562274,0.740301 0.719625,0.878225 54.137113,0.47215 v -0.009 h 0.0541 l 3.7035,-23.251473 3.91427,32.545006 h 0.0397 l -0.007,0.04362 2.00729,0.0058 4.10194,-25.756564 3.8825,16.55605 0.21582,-6.41e-4 v 0.02053 h 64.0841 V 84.8991 H 127.2241 l -4.07956,-17.39835 -2.00658,0.0038 10e-4,0.0058 -0.86398,-0.0026 -3.43644,21.573287 -3.71867,-30.916857 -1.05886,0.0045 z m 71.48028,18.792989 c 0.001,2.39e-4 0.002,4.05e-4 0.004,6.42e-4 0.0373,0.0044 0.0746,0.0084 0.11188,0.01283 -0.003,-6.5e-4 -0.007,-7.8e-4 -0.006,-0.0032 10e-4,-0.004 0.0103,-0.005 0.018,-0.0051 -0.0424,-0.0043 -0.085,-0.0054 -0.12776,-0.0051 z" />
            </g>
          </g>
        </g>
      </g>
    </g>
  </g>
  <g
     aria-label="edLife"
     transform="scale(1.0355402,0.96567953)"
     id="text365"
     style="font-size:14.6127px;fill:url(#linearGradient1178);stroke-width:0.273987">
    <path
       d="m 62.777278,29.099737 h -5.872194 q 0,0.734917 0.221189,1.28432 0.221188,0.542268 0.606484,0.891888 0.371025,0.342485 0.877618,0.513728 0.513728,0.171243 1.127347,0.171243 0.813402,0 1.63394,-0.32108 0.827672,-0.328215 1.177292,-0.64216 h 0.07135 v 1.462697 q -0.677836,0.285404 -1.384211,0.478052 -0.706376,0.192648 -1.484103,0.192648 -1.98356,0 -3.096636,-1.070266 -1.113077,-1.077401 -1.113077,-3.053826 0,-1.955019 1.063131,-3.103772 1.070266,-1.148752 2.811232,-1.148752 1.612535,0 2.483018,0.941834 0.877618,0.941834 0.877618,2.675665 z m -1.305725,-1.027455 q -0.0071,-1.055996 -0.535133,-1.63394 -0.520863,-0.577943 -1.591129,-0.577943 -1.077401,0 -1.719561,0.635024 -0.635024,0.635025 -0.720646,1.576859 z"
       id="path3991"
       style="fill:url(#linearGradient4118)" />
    <path
       d="m 71.275191,32.94556 h -1.3414 v -0.834807 q -0.577944,0.499457 -1.205834,0.777727 -0.627889,0.278269 -1.362805,0.278269 -1.427022,0 -2.268964,-1.098807 -0.834808,-1.098806 -0.834808,-3.046691 0,-1.013185 0.285404,-1.805182 0.29254,-0.791997 0.784862,-1.348535 0.485188,-0.542269 1.127347,-0.827673 0.649295,-0.285404 1.3414,-0.285404 0.62789,0 1.113077,0.135567 0.485188,0.128432 1.020321,0.406701 v -3.453392 h 1.3414 z m -1.3414,-1.962154 v -4.573604 q -0.542269,-0.242594 -0.970375,-0.33535 -0.428106,-0.09276 -0.934699,-0.09276 -1.127347,0 -1.755237,0.784862 -0.627889,0.784862 -0.627889,2.226154 0,1.419886 0.485187,2.161937 0.485188,0.734917 1.555454,0.734917 0.570808,0 1.155887,-0.249729 0.585079,-0.256864 1.091672,-0.65643 z"
       id="path3993"
       style="fill:url(#linearGradient4120)" />
    <path
       d="M 80.743479,32.94556 H 74.022208 V 22.321385 h 1.412751 v 9.368397 h 5.30852 z"
       id="path3995"
       style="fill:url(#linearGradient4122)" />
    <path
       d="m 83.490497,23.64138 h -1.512643 v -1.391346 h 1.512643 z m -0.08562,9.30418 h -1.3414 v -7.969915 h 1.3414 z"
       id="path3997"
       style="fill:url(#linearGradient4124)" />
    <path
       d="m 90.347334,23.141923 h -0.07135 q -0.221188,-0.06422 -0.577944,-0.128432 -0.356755,-0.07135 -0.627889,-0.07135 -0.863348,0 -1.255779,0.385295 -0.385296,0.378161 -0.385296,1.377076 v 0.271134 h 2.418802 v 1.127347 h -2.375991 v 6.842568 h -1.3414 v -6.842568 h -0.906159 v -1.127347 h 0.906159 v -0.263999 q 0,-1.419886 0.706375,-2.176208 0.706376,-0.763456 2.040641,-0.763456 0.449512,0 0.806267,0.04281 0.363891,0.04281 0.663565,0.09989 z"
       id="path3999"
       style="fill:url(#linearGradient4126)" />
    <path
       d="m 97.86774,29.099737 h -5.872194 q 0,0.734917 0.221188,1.28432 0.221189,0.542268 0.606485,0.891888 0.371025,0.342485 0.877618,0.513728 0.513728,0.171243 1.127347,0.171243 0.813402,0 1.633939,-0.32108 0.827673,-0.328215 1.177293,-0.64216 h 0.07135 v 1.462697 q -0.677835,0.285404 -1.384211,0.478052 -0.706375,0.192648 -1.484102,0.192648 -1.98356,0 -3.096637,-1.070266 -1.113077,-1.077401 -1.113077,-3.053826 0,-1.955019 1.063132,-3.103772 1.070266,-1.148752 2.811232,-1.148752 1.612534,0 2.483017,0.941834 0.877619,0.941834 0.877619,2.675665 z m -1.305725,-1.027455 q -0.0071,-1.055996 -0.535133,-1.63394 -0.520863,-0.577943 -1.591129,-0.577943 -1.077401,0 -1.719561,0.635024 -0.635025,0.635025 -0.720646,1.576859 z"
       id="path4001"
       style="fill:url(#linearGradient4128)" />
  </g>
</svg>
